<?xml version="1.0" encoding="UTF-8" standalone="no"?>
<!-- Created with Inkscape (http://www.inkscape.org/) -->

<svg
   width="591.43091mm"
   height="591.43079mm"
   viewBox="0 0 591.43091 591.43079"
   version="1.1"
   id="svg1"
   xml:space="preserve"
   inkscape:version="1.4.4 (dcaf3e7, 2026-05-05)"
   sodipodi:docname="LuriLogoBlack.svg"
   xmlns:inkscape="http://www.inkscape.org/namespaces/inkscape"
   xmlns:sodipodi="http://sodipodi.sourceforge.net/DTD/sodipodi-0.dtd"
   xmlns="http://www.w3.org/2000/svg"
   xmlns:svg="http://www.w3.org/2000/svg"><sodipodi:namedview
     id="namedview1"
     pagecolor="#ffffff"
     bordercolor="#000000"
     borderopacity="0.25"
     inkscape:showpageshadow="2"
     inkscape:pageopacity="0.0"
     inkscape:pagecheckerboard="0"
     inkscape:deskcolor="#d1d1d1"
     inkscape:document-units="mm"
     showguides="true"
     inkscape:zoom="0.15392855"
     inkscape:cx="916.00941"
     inkscape:cy="786.079"
     inkscape:window-width="1512"
     inkscape:window-height="863"
     inkscape:window-x="0"
     inkscape:window-y="33"
     inkscape:window-maximized="0"
     inkscape:current-layer="layer1" /><defs
     id="defs1"><style
       type="text/css"
       id="style1">
   <![CDATA[
    .fil0 {fill:#2B2A29}
    .fil1 {fill:#84D0F5}
    .fil2 {fill:#00A0E3}
    .fil4 {fill:#2B2A29;fill-rule:nonzero}
    .fil3 {fill:#00A0E3;fill-rule:nonzero}
   ]]>
  </style><style
       id="style1-3">
      .cls-1 {
        fill: #fff;
      }
    </style></defs><g
     inkscape:label="Ebene 1"
     inkscape:groupmode="layer"
     id="layer1"
     transform="translate(-130.28455,-167.56484)"><g
       id="g310"
       transform="translate(-1449.9169,-680.55509)"><path
         style="fill:#5777aa;fill-opacity:1"
         d="m 1745.5448,1043.0604 c -0.833,-0.4123 -1.1692,-1.0109 -1.1692,-2.0816 v -0.8604 l 1.0472,-1.3837 c 3.6553,-4.8301 9.0637,-10.8746 14.4673,-16.1689 63.3559,-62.07513 156.7253,-65.33546 224.6237,-7.8436 4.8009,4.0651 13.7889,12.7545 14.8477,14.3544 0.7748,1.1708 0.3708,2.8042 -0.8383,3.3895 -1.3954,0.6755 -2.1115,0.3232 -4.4311,-2.1801 -13.9161,-15.0177 -34.4986,-29.4892 -54.5194,-38.33254 -4.4726,-1.97557 -13.261,-5.38922 -13.4327,-5.21758 -0.031,0.0313 0.4049,0.36317 0.9693,0.73755 12.1216,8.04106 23.2149,21.67067 28.7719,35.35007 1.0753,2.6471 0.4469,4.2833 -1.6453,4.2833 -1.4211,0 -1.8392,-0.4135 -2.8577,-2.826 -8.4505,-20.017 -25.6244,-35.76577 -46.3452,-42.4995 -5.0695,-1.64743 -5.5085,-1.74033 -11.4453,-2.42183 -4.8587,-0.55775 -14.8299,-1.15493 -15.3815,-0.92121 -0.1276,0.0541 -1.2176,0.11656 -2.4222,0.13886 -7.4574,0.13806 -12.7355,3.03692 -14.7898,8.12303 -3.4955,8.65394 6.5276,18.24295 17.2067,16.46135 6.7438,-1.1251 13.058,-6.2322 16.1011,-13.02315 0.6895,-1.53854 1.2968,-2.0302 2.5077,-2.0302 1.2046,0 2.1366,0.86872 2.2551,2.10217 l 0.068,0.71023 -0.8596,1.77826 c -4.6042,9.52449 -13.1923,15.26239 -22.8427,15.26169 l -2.6847,-2e-4 -1.4667,-0.3282 c -14.1414,-3.1645 -20.4599,-18.1002 -11.6217,-27.47129 l 0.9003,-0.95451 h -0.3355 c -1.3945,0 -8.0959,1.01452 -9.3071,1.40901 -0.5052,0.16452 -2.0948,0.67854 -3.5325,1.14226 -20.7767,6.70125 -37.6477,22.16283 -46.4767,42.59383 -1.0999,2.5452 -1.5282,2.9078 -3.2109,2.7181 -1.1379,-0.1283 -2.0089,-1.3066 -1.8488,-2.5009 0.096,-0.7151 1.5539,-4.057 3.1021,-7.1106 5.9672,-11.7694 14.7162,-21.87159 25.5269,-29.47501 1.1176,-0.78602 2.0013,-1.42913 1.9638,-1.42913 -0.629,0 -9.9567,3.68726 -14.3812,5.68493 -23.7422,10.71961 -47.2198,29.07801 -62.5089,48.87901 -1.7155,2.2217 -2.5867,2.6443 -4.0043,1.9426 z"
         id="path92"
         sodipodi:nodetypes="sscssssssssssssssssssssscsscsscsssssssssssss" /><path
         id="path94"
         style="fill:#2b3d94;fill-opacity:1"
         d="m 1950.4977,1158.2048 c -1.096,-0.063 -2.2187,0.4093 -2.9027,1.4428 l -0.3829,0.5788 -0.099,1.8572 c -0.054,1.0216 -0.1377,10.8228 -0.1855,21.7806 -0.048,10.9578 -0.1255,20.5557 -0.1726,21.3284 l -0.086,1.4051 -0.3008,-0.415 c -4.4166,-6.0881 -10.3057,-9.8028 -17.6097,-11.1078 -1.6325,-0.2917 -7.0401,-0.2458 -8.8315,0.075 -2.9087,0.5208 -6.8824,1.7207 -7.6973,2.3239 -1.3605,1.0072 -1.3406,2.8742 0.042,3.899 0.6584,0.4881 1.6873,0.3855 3.8406,-0.3819 1.0103,-0.36 2.6634,-0.8283 3.6737,-1.0408 l 1.8371,-0.3865 h 2.8965 2.8965 l 1.4836,0.322 c 8.0711,1.7523 14.2821,7.5863 17.2304,16.1845 l 0.5762,1.68 -0.139,16.9716 -0.139,16.9716 -0.218,2.1818 c -2.2917,22.9097 -13.0075,39.4055 -29.9393,46.0886 -14.6637,5.7878 -33.9431,9.1686 -50.3907,8.8356 -31.8847,-0.6455 -53.0515,-10.6096 -57.227,-26.9389 -1.199,-4.6888 0.8297,-10.3683 5.2131,-14.5939 3.5968,-3.4674 8.3087,-5.1637 17.108,-6.1593 l 2.2944,-0.26 19.4324,0.2047 19.4324,0.2051 0.7897,-0.4041 c 2.4814,-1.2691 2.1491,-5.2724 -0.4951,-5.9634 -0.5353,-0.1398 -38.9339,-0.6045 -40.1066,-0.4853 -12.7237,1.2933 -19.1335,3.7451 -24.0998,9.2186 -7.6548,8.4364 -8.4315,18.5682 -2.1839,28.482 8.8439,14.0338 27.6686,21.6891 56.9459,23.1588 v 0 c 1.9048,0.096 12.0305,-0.044 14.1299,-0.1948 19.0469,-1.3678 39.5969,-6.7966 49.7846,-13.1517 8.5167,-5.3128 16.3212,-14.7728 20.1016,-24.3665 l 0.3338,-0.848 1.557,-1.5611 c 2.7984,-2.806 4.9724,-4.2573 11.1657,-7.4549 11.5327,-5.9544 18.3156,-10.8157 26.014,-18.6438 12.013,-12.2154 18.8362,-24.1203 19.0918,-33.3106 l 0.065,-2.3317 -0.2775,-1.3435 c -2.086,-10.1103 -14.6724,-14.2636 -25.9772,-8.5721 -9.2957,4.6799 -15.6885,15.2462 -15.9169,26.3084 l -0.032,1.5524 0.323,0.5199 c 0.8951,1.4394 2.9552,1.4389 3.9357,0 l 0.3028,-0.4444 0.096,-1.45 c 0.4357,-6.5593 2.5055,-12.035 6.2477,-16.5277 6.8802,-8.2601 18.2873,-10.4175 24.1386,-4.5651 1.9757,1.9761 2.5429,3.6078 2.4318,6.996 l -0.067,2.0489 -0.3746,1.3937 c -2.8656,10.6679 -14.34,25.4839 -27.1255,35.0253 -4.3408,3.2394 -8.4251,5.7381 -14.4389,8.8331 -4.1335,2.1273 -5.9575,3.1421 -7.4032,4.1191 -0.3354,0.2268 -0.6242,0.4008 -0.6562,0.3969 h -6e-4 -5e-4 l -5e-4,-6e-4 h -5e-4 v -5e-4 c -0.016,-0.016 0.1817,-0.9327 0.4392,-2.0365 0.8787,-3.7662 1.5245,-7.8107 1.9012,-11.9109 0.116,-1.2628 0.613,-59.0203 0.7307,-84.921 l 0.037,-8.2661 -0.3013,-0.5783 c -0.5762,-1.1058 -1.6454,-1.7039 -2.7414,-1.7668 z m -22.2333,116.3727 -2.2608,1.5007 c -31.0238,20.5907 -68.6753,21.3271 -99.688,1.9498 l -1.7906,-1.1188 h -0.7364 c -1.6661,0 -2.7124,1.3454 -2.2841,2.9362 0.2047,0.7601 0.809,1.2776 3.1911,2.7342 14.0751,8.6067 29.6403,13.4365 45.4421,14.1 v 0 c 3.8111,0.1613 3.9999,0.1613 7.5417,0.01 17.4367,-0.7461 34.2969,-6.0866 49.2926,-15.6135 4.1948,-2.665 4.4008,-2.8634 4.4008,-4.2364 0,-1.47 -0.7817,-2.2609 -2.2355,-2.2609 z" /><path
         d="m 1637.8418,1225.7221 h 0.6362 c 0.6863,0 1.28,0.4013 1.4448,0.9762 0.2607,0.9093 2.3711,6.9419 3.3409,9.5503 8.0717,21.7097 18.7544,42.0874 31.8823,60.8175 l 1.5762,2.2489 v 0.553 c 0,0.4224 -0.097,0.6501 -0.4129,0.9658 l -0.4129,0.4129 h -0.6393 c -0.4651,0 -0.733,-0.086 -0.9865,-0.3178 -0.1914,-0.1749 -0.9695,-1.2085 -1.7286,-2.2965 -14.5177,-20.808 -25.8927,-43.1892 -34.3121,-67.5116 -1.3509,-3.9023 -1.4084,-4.2568 -0.8004,-4.9372 z"
         style="fill:#2b3d94;fill-opacity:1"
         id="path259" /><path
         d="m 1719.1654,1198.6072 c -2.9734,-0.099 -5.2739,2.5687 -4.5217,5.4823 0.4114,1.5934 4.7644,10.4915 7.8057,15.9567 7.3293,13.1704 15.7125,24.8208 25.9519,36.0665 1.0084,1.1074 1.9061,2.0123 1.9953,2.0113 0.089,0 1.4388,-1.1303 2.9993,-2.5084 1.5604,-1.3781 3.0729,-2.712 3.361,-2.9647 l 0.524,-0.4594 -2.1828,-2.3663 c -12.7622,-13.8368 -23.4448,-29.9372 -31.4601,-47.4146 -1.2225,-2.6658 -2.0423,-3.459 -3.8695,-3.7455 -0.2036,-0.032 -0.4049,-0.051 -0.6031,-0.057 z"
         style="fill:#f18159;fill-opacity:1"
         id="path244" /><path
         id="path158"
         style="fill:#bd4317;fill-opacity:1"
         d="m 1878.3892,1084.1877 c -0.5466,-0.021 -1.1023,0 -1.6629,0.079 -8.0007,1.0647 -11.2485,10.6522 -5.5583,16.4075 l 1.0655,1.0785 1.3364,0.6609 c 0.7349,0.3635 1.7814,0.7524 2.3254,0.8646 h 5e-4 c 4.7859,0.9873 9.5145,-1.6754 11.2081,-6.3118 l 0.3783,-1.0367 -0.01,-2.1194 -0.01,-2.1197 -0.4351,-1.1457 c -1.4405,-3.7905 -4.8175,-6.2111 -8.6439,-6.3572 z m -0.433,3.2034 c 0.073,-10e-5 0.1459,7e-4 0.2191,0 v 0 c 1.4849,0.061 2.9863,0.6471 4.2364,1.8474 1.3104,1.2583 1.943,2.8632 1.9792,4.4576 0,5e-4 0,0 0,0 0.01,0.2642 -0.01,0.5281 -0.031,0.7902 -0.2379,2.3719 -1.7871,4.5871 -4.3749,5.4396 -3.8229,1.2593 -7.6999,-1.09 -8.4165,-5.1001 l -0.1757,-0.9835 h 5e-4 -5e-4 l 0.1684,-0.9839 c 0.5603,-3.2671 3.1706,-5.2927 5.9795,-5.4591 0.065,0 0.1312,-0.01 0.1969,-0.01 0.073,0 0.1457,0 0.2186,0 z" /><path
         class="cls-1"
         d="m 2066.3258,1083.866 v 107.8918 c 0,0.9798 -0.7969,1.7767 -1.7767,1.7767 h -15.8895 c -0.9799,0 -1.7767,-0.7969 -1.7767,-1.7767 V 1083.866 c 0,-0.9799 0.7968,-1.7767 1.7767,-1.7767 h 15.8895 c 0.9798,0 1.7767,0.7968 1.7767,1.7767 z"
         id="path1"
         style="fill:#1a1a1a;stroke-width:0.59025" /><path
         id="path2"
         style="fill:#bd4317;fill-opacity:1;stroke-width:0.59025"
         class="cls-1"
         d="m 2110.5412,968.53105 c -7.5375,8.9541 -18.3331,20.85373 -32.4637,33.64445 -5.5778,5.0467 -28.6095,25.5636 -66.1081,47.2199 -19.3012,11.1498 -33.7266,17.4653 -62.5662,30.1025 -15.4816,6.7823 -35.1801,15.0052 -58.7127,23.8208 l 0.058,24.9199 c 9.4455,-2.8917 19.0711,-6.0849 29.1424,-9.7839 42.2738,-15.5235 74.8377,-33.4966 96.2107,-46.6297 -12.0529,10.1051 -30.6577,25.2329 -54.3032,42.4977 -9.987,7.2955 -16.1137,11.4922 -72.6007,48.9908 -44.5108,29.5479 -61.7046,40.8869 -87.9471,59.6155 -13.5167,9.6506 -20.2752,14.4729 -28.3321,20.6587 -13.9594,10.713 -65.4882,58.116 -75.552,69.0593 -0.1948,2.1662 -0.3959,4.3264 -0.5906,6.4926 10.4887,-9.7332 25.3216,-23.1023 43.6784,-38.3661 26.3783,-21.9337 47.5452,-37.4043 66.6988,-51.3519 10.5242,-7.6615 31.4838,-22.7363 58.4347,-40.7272 16.0489,-10.713 19.3719,-12.5487 49.5809,-32.4637 20.5348,-13.5404 30.7995,-20.3047 42.4982,-28.3321 25.8235,-17.7134 38.7321,-26.5731 55.4834,-40.1371 3.695,-2.9926 7.1892,-5.8965 10.465,-8.6884 18.103,-15.3937 29.7251,-27.2634 33.2135,-30.858 13.3692,-13.7942 23.9642,-24.838 34.8248,-41.9081 9.4558,-14.86246 15.3226,-28.32014 18.8877,-37.77595 z m -223.1099,136.00365 c -5.9199,2.1981 -12.0743,4.43 -18.4573,6.6833 l 7.1215,14.4807 -5.0973,8.2641 c 5.4146,-1.492 10.8271,-3.0373 16.2894,-4.6756 -0.014,-0.017 -7.8847,-9.2906 -8.7147,-10.002 -0.8307,-0.7121 8.8584,-14.7505 8.8584,-14.7505 z m -21.793,7.8553 c -26.17,9.1499 -27.9727,8.6227 -65.5686,21.4111 -31.6787,10.7721 -50.9857,17.3415 -73.1909,26.5612 -21.733,9.0249 -51.4051,22.7305 -85.5865,43.0883 l 5.3123,1.7709 c 11.1853,-6.3334 27.6239,-14.8861 48.4007,-23.0197 14.3667,-5.6251 25.6403,-9.031 33.0538,-11.2149 44.676,-13.1803 76.9214,-19.9328 109.7866,-28.3321 9.3505,-2.3906 18.4067,-4.705 27.4061,-7.1272 z" /><path
         class="cls-1"
         d="m 1685.5512,1317.1077 c -5.4865,0 -9.9393,4.4528 -9.9393,9.9394 0,5.4865 4.4528,9.9393 9.9393,9.9393 5.4865,0 9.9393,-4.4528 9.9393,-9.9393 0,-5.4866 -4.4528,-9.9394 -9.9393,-9.9394 z"
         id="path4"
         style="fill:#bd4317;fill-opacity:1;stroke-width:0.795145" /><rect
         class="cls-1"
         x="-1616.797"
         y="-1147.9316"
         width="36.59552"
         height="8.1867714"
         rx="4.0963373"
         ry="4.0963373"
         transform="scale(-1)"
         id="rect4"
         style="fill:#f1a185;fill-opacity:0.996078;stroke-width:0.59025" /><rect
         class="cls-1"
         x="2135.0369"
         y="1139.739"
         width="36.59552"
         height="8.1867714"
         rx="4.0963373"
         ry="4.0963373"
         id="rect5"
         style="fill:#f1a185;fill-opacity:0.996078;stroke-width:0.59025" /><rect
         class="cls-1"
         x="-884.71545"
         y="1871.8206"
         width="36.59552"
         height="8.1867714"
         rx="4.0963373"
         ry="4.0963373"
         transform="rotate(-90)"
         id="rect6"
         style="fill:#f1a185;fill-opacity:0.996078;stroke-width:0.59025" /><rect
         class="cls-1"
         x="1402.9552"
         y="-1880.0132"
         width="36.59552"
         height="8.1867714"
         rx="4.0963373"
         ry="4.0963373"
         transform="rotate(90)"
         id="rect7"
         style="fill:#f1a185;fill-opacity:0.996078;stroke-width:0.59025" /><g
         id="g9"
         style="fill:#ffffff"
         transform="matrix(0.59025031,0,0,0.59025031,1551.2792,819.19771)"><path
           class="cls-1"
           d="m 199.08,617.18 c -4.09,-21.6 -6.23,-43.89 -6.23,-66.69 0,-196.86 159.59,-356.45 356.45,-356.45 119.27,0 224.86,58.58 289.56,148.54 11,-8.18 19.99,-15.39 26.87,-21.14 C 794.91,223.77 679.88,160.25 550,160.25 c -215.25,0 -389.74,174.49 -389.74,389.74 0,28.58 3.08,56.44 8.92,83.27 10.28,-5.73 20.26,-11.09 29.91,-16.09 z"
           id="path7"
           style="fill:#1a1a1a" /><path
           class="cls-1"
           d="m 204.21,640.1 c -11.07,5.19 -20.98,10.23 -29.65,14.86 16.33,58.53 45.97,111.5 85.46,155.45 7.16,-6.8 15.24,-14.36 23.68,-22.18 -37.35,-41.7 -65.03,-92.25 -79.5,-148.12 z"
           id="path8"
           style="fill:#1a1a1a" /><path
           class="cls-1"
           d="m 866.75,388.27 c 24.92,48.66 38.99,103.8 38.99,162.23 0,196.86 -159.59,356.45 -356.45,356.45 -95.98,0 -183.09,-37.95 -247.17,-99.64 -8.82,7.6 -16.99,14.79 -24.48,21.47 70.26,68.65 166.36,110.97 272.35,110.97 215.25,0 389.74,-174.49 389.74,-389.74 0,-68.25 -17.56,-132.39 -48.38,-188.18 -7.73,8.85 -15.82,17.36 -24.61,26.45 z"
           id="path9"
           style="fill:#1a1a1a" /></g><g
         id="g13"
         style="fill:#ffffff"
         transform="matrix(0.59025031,0,0,0.59025031,1551.2792,819.19771)"><g
           id="g11"
           style="fill:#ffffff"><path
             class="cls-1"
             d="m 251.09,640.58 h -14.83 c 13.79,47.85 38.21,91.19 70.57,127.28 3.55,-3.22 7.07,-6.41 10.53,-9.52 -30.04,-33.51 -52.92,-73.56 -66.26,-117.75 z"
             id="path10"
             style="fill:#bd4317;fill-opacity:1" /><path
             class="cls-1"
             d="m 549.99,223.5 c -142.38,0 -263.45,91.14 -308.11,218.26 h 15.41 c 44.1,-118.51 158.23,-202.93 292.1,-202.93 104.26,0 196.54,51.21 253.1,129.84 4.52,-2.94 8.87,-5.84 13.02,-8.67 C 756.27,277.36 659.41,223.5 549.97,223.5 Z"
             id="path11"
             style="fill:#3a487b;fill-opacity:1" /></g><path
           class="cls-1"
           d="m 833.01,421.27 c 3.06,6.71 5.89,13.54 8.48,20.5 h 16.62 c -3.82,-10.86 -8.2,-21.45 -13.1,-31.76 -3.54,3.39 -7.55,7.17 -12,11.26 z"
           id="path12"
           style="fill:#3a487b;fill-opacity:1" /><path
           class="cls-1"
           d="m 549.4,862 c -82.19,0 -156.93,-31.84 -212.6,-83.84 -3.38,2.77 -6.81,5.6 -10.3,8.5 -0.25,0.21 -0.5,0.42 -0.76,0.63 58.49,55.29 137.4,89.21 224.24,89.21 148.89,0 274.49,-99.67 313.76,-235.92 H 847.71 C 809.04,768.7 690.12,862 549.39,862 Z"
           id="path13"
           style="fill:#bd4317;fill-opacity:1" /></g><path
         id="path14"
         style="fill:#93a4bd;fill-opacity:1;stroke-width:0.59025"
         class="cls-1"
         d="m 1845.8731,1207.24 c -2.5558,1.7648 -5.0112,3.4707 -7.3722,5.1175 14.3713,14.1025 46.7859,43.4451 61.6562,48.9841 -0.026,0.2742 -0.04,0.552 -0.04,0.833 0,4.7397 3.8484,8.5882 8.5881,8.5882 4.7397,0 8.5881,-3.8485 8.5881,-8.5882 0,-4.7397 -3.8484,-8.5881 -8.5881,-8.5881 -2.253,0 -4.3024,0.8673 -5.8337,2.2857 -10.7524,-4.2284 -38.8929,-30.6109 -56.9986,-48.6322 z m 65.4523,51.0832 a 4.9097204,4.9097204 0 0 1 4.9098,4.9098 4.9097204,4.9097204 0 0 1 -4.9098,4.9098 4.9097204,4.9097204 0 0 1 -4.9097,-4.9098 4.9097204,4.9097204 0 0 1 4.9097,-4.9098 z" /><g
         id="g19"
         style="fill:#ffffff"
         transform="matrix(0.59025031,0,0,0.59025031,1551.2792,819.19771)"><path
           class="cls-1"
           d="m 712.24,477.05 h 0.78 c 0.35,0 0.68,0.02 1.03,0.03 1.11,-0.84 2.24,-1.69 3.33,-2.52 -1.7,0.83 -3.41,1.66 -5.14,2.5 z"
           id="path15"
           style="fill:#ffffff" /><path
           class="cls-1"
           d="m 651.49,503.65 c -6.83,2.7 -13.83,5.38 -20.99,8.01 -4.03,1.48 -8,2.9 -11.95,4.28 v 27.8 c 13.85,-9.22 24.49,-16.34 32.95,-22.02 v -18.07 z"
           id="path16"
           style="fill:#1a1a1a" /><path
           class="cls-1"
           d="m 646.72,445.72 h -25.18 c -1.66,0 -3,1.34 -3,3 v 8.68 c 9.99,-4.05 19.39,-7.95 28.18,-11.68 z"
           id="path17"
           style="fill:#1a1a1a" /><path
           class="cls-1"
           d="m 736.17,558.59 c -0.96,-1.64 -0.17,-3.73 1.62,-4.35 3.39,-1.19 6.63,-2.63 9.7,-4.34 6.04,-3.36 11.29,-7.51 15.76,-12.46 5.19,-5.76 8.91,-12.51 11.48,-19.82 2.4,-6.83 2.35,-24.02 0,-31 -1.4,-4.15 -3.2,-8.14 -5.42,-11.87 -9.22,7.04 -18.47,13.77 -28.87,21.12 1.11,5.84 0.93,13.95 -1.71,17.75 -3.14,4.52 -5.46,6.95 -10.26,9.65 -4.45,2.51 -9.59,3.78 -15.46,3.78 h -17.62 c -0.3,0.21 -0.59,0.41 -0.9,0.62 -4.08,2.8 -8.07,5.51 -12.12,8.25 l 16.94,22.29 c 0.09,0.11 0.17,0.24 0.24,0.36 l 40.74,73.51 c 0.53,0.95 1.53,1.55 2.62,1.55 h 32.07 c 2.32,0 3.76,-2.52 2.59,-4.52 l -41.4,-70.5 z"
           id="path18"
           style="fill:#1a1a1a" /><path
           class="cls-1"
           d="m 622.5,575.66 c -1.35,0.89 -2.66,1.76 -3.95,2.61 v 52.85 c 0,1.66 1.34,3 3,3 h 26.94 c 1.66,0 3,-1.34 3,-3 v -74.59 c -8.29,5.48 -17.73,11.7 -28.99,19.13 z"
           id="path19"
           style="fill:#1a1a1a" /></g><g
         id="g21"
         style="fill:#ffffff"
         transform="matrix(0.59025031,0,0,0.59025031,1551.2792,819.19771)"><path
           class="cls-1"
           d="m 415.5,528.34 c 8.18,-2.78 15.36,-5.19 21.76,-7.32 v -71.64 c 0,-1.66 -1.34,-3 -3,-3 h -26.95 c -1.66,0 -3,1.34 -3,3 v 82.76 c 3.63,-1.24 7.35,-2.5 11.18,-3.8 z"
           id="path20"
           style="fill:#1a1a1a" /><path
           class="cls-1"
           d="m 566.42,578.39 c 1.96,-8.53 2.95,-17.91 2.95,-28.14 v -18.49 c -11.02,3.24 -21.96,6.28 -32.95,9.23 v 10.39 c 0,9 -1.2,16.92 -3.59,23.78 -2.16,6.19 -5.3,11.51 -9.41,15.95 -8.67,9.37 -20.91,14.05 -36.74,14.05 -15.83,0 -27.89,-4.68 -36.5,-14.05 -6.03,-6.56 -9.94,-15.02 -11.75,-25.38 -10.48,2.53 -21.15,5.12 -32.16,7.83 3.02,16.8 9.55,30.55 19.6,41.21 12.74,13.51 30.13,21.01 52.15,22.54 22.77,-15.39 49.39,-33.03 88.4,-58.92 z"
           id="path21"
           style="fill:#1a1a1a" /></g><path
         class="cls-1"
         d="m 1962.7938,1130.4524 c -0.3542,0.242 -1.2257,-0.051 -1.5857,0.1968 -2.6975,1.8534 -5.3241,3.636 -8.0156,5.4539 12.6844,17.495 21.7153,35.7102 29.117,54.5273 0.6257,1.5937 2.1603,2.6444 3.8721,2.6326 l 12.0293,-0.077 c 0,0 -0.3955,-0.9444 -0.5726,-1.4107 -7.992,-21.3847 -19.3268,-41.5675 -34.8504,-61.3231 z"
         id="path24"
         style="fill:#1a1a1a;stroke-width:0.59025"
         sodipodi:nodetypes="ccccccccc" /><g
         id="g27"
         style="fill:#ffffff"
         transform="matrix(0.59025031,0,0,0.59025031,1551.2792,819.19771)"><path
           class="cls-1"
           d="m 260.36,634.2 h 114.89 c 1.66,0 3,-1.34 3,-3 v -25.33 c 0,-1.66 -1.34,-3 -3,-3 h -77.14 c -12.2,3.69 -28.63,8.97 -48.61,16.8 -7.73,3.03 -15.08,6.09 -22.09,9.13 v 2.4 c 0,1.66 1.34,3 3,3 h 29.94 z"
           id="path26"
           style="fill:#1a1a1a" /><path
           class="cls-1"
           d="M 260.36,586.84 V 448.38 c 0,-1.66 -1.34,-3 -3,-3 h -26.94 c -1.66,0 -3,1.34 -3,3 v 154.01 c 11.61,-5.71 22.61,-10.88 32.95,-15.55 z"
           id="path27"
           style="fill:#1a1a1a" /></g><path
         d="m 2036.0127,1082.8131 -0.7999,0.3927 c -0.9211,0.4523 -1.7142,1.2665 -2.1477,2.204 l -0.3023,0.6532 -0.075,54.0469 -0.075,54.0469 -0.2455,1.5988 c -1.8041,11.7403 -6.5103,22.8879 -14.8812,35.248 -15.2061,22.4524 -40.3778,43.4322 -67.6744,56.4043 l -3.0629,1.4557 -1.2898,1.771 c -3.9026,5.3598 -8.1263,9.4887 -13.2923,12.994 -1.7008,1.1541 -1.5975,1.1682 1.3173,0.1783 55.54,-18.8618 103.274,-66.6544 107.8957,-108.028 l 0.2124,-1.9043 v -53.9058 -53.9058 l -0.3395,-0.7297 c -0.4224,-0.9071 -1.2314,-1.7304 -2.141,-2.1781 l -0.6955,-0.3421 h -1.2015 z"
         style="fill:#5777aa;fill-opacity:1"
         id="path156" /><path
         d="m 1670.9348,994.54862 c -0.6035,-0.021 -1.2554,0.4427 -1.866,1.3658 -27.7857,42.00728 -42.5962,86.69158 -45.3926,136.95088 -0.2357,4.2361 -0.2354,20.6434 5e-4,24.8688 0.7683,13.7629 2.1981,25.6442 4.5486,37.8018 l 0.4362,2.2567 0.4206,0.3886 c 0.5602,0.5177 1.3534,0.5326 1.9425,0.037 0.5614,-0.4724 0.6169,-0.9008 0.3101,-2.4034 -13.6306,-66.7606 0.8317,-138.6888 39.6839,-197.36998 1.4504,-2.1908 1.5601,-2.5826 0.9317,-3.3295 -0.3085,-0.3666 -0.6533,-0.5539 -1.0155,-0.5664 z"
         style="fill:#2b3d94;fill-opacity:1"
         id="path124" /><path
         d="m 1782.2477,1164.8175 0.7984,0.049 c 1.4362,0.088 2.1247,1.0455 4.2922,5.9676 7.8327,17.7872 7.0979,34.868 -2.1306,49.5256 -5.6057,8.9036 -12.1774,12.8749 -19.8453,11.9931 -6.0197,-0.6922 -11.5577,-4.2061 -14.0596,-8.9209 -4.2947,-8.0934 0.6834,-18.5792 10.88,-22.9169 5.1572,-2.194 7.6997,-1.9394 7.6997,0.7699 0,1.4938 -0.5086,1.946 -2.8525,2.5379 -9.7097,2.4522 -15.4146,11.6886 -11.1864,18.1105 2.4525,3.725 8.3999,6.3971 12.9031,5.7976 6.216,-0.8276 11.9841,-6.9758 16.1949,-17.262 5.018,-12.2582 3.9855,-25.8375 -3.0515,-40.1226 l -1.2676,-2.5725 v -0.6615 c 0,-0.8603 0.3838,-1.5648 1.0743,-1.9709 z"
         style="fill:#5777aa;fill-opacity:1"
         id="path113"
         sodipodi:nodetypes="csssssssssssccssc" /><path
         d="m 1975.268,900.55619 c -0.2432,-0.005 -0.2839,0.14602 -0.3638,0.39791 -1.2245,3.86274 -3.126,10.24074 -3.0954,10.38283 0.022,0.1021 1.0892,0.65277 2.3714,1.2237 26.464,11.78281 50.3926,28.26127 71.5683,49.28536 2.4868,2.46907 4.5531,4.48984 4.5919,4.49069 0.073,0.002 5.4393,-9.25461 5.5847,-9.63352 0.1232,-0.32091 -7.5326,-7.53124 -14.2823,-13.45138 -21.4523,-18.81582 -42.3941,-32.55543 -63.2561,-41.50083 -1.9749,-0.84682 -2.7632,-1.18745 -3.1187,-1.19476 z"
         style="fill:#3a487b;fill-opacity:1"
         id="path104" /><path
         d="m 1778.354,900.32003 c -0.053,-0.0573 -1.27,0.39423 -2.7048,1.00356 -25.0101,10.62117 -49.7361,27.70811 -75.3422,52.06452 -1.4571,1.38604 -2.6494,2.57869 -2.6494,2.65049 0,0.0718 1.2466,2.2919 2.7704,4.93355 1.5237,2.64166 2.8228,4.8028 2.8866,4.8028 0.064,0 0.8672,-0.79493 1.7859,-1.76681 3.1948,-3.37934 10.485,-10.21268 15.3965,-14.43168 17.7265,-15.22698 39.2908,-28.80517 59.7855,-37.64473 0.7966,-0.34357 1.448,-0.67663 1.448,-0.74053 0,-0.20938 -3.2783,-10.76426 -3.3765,-10.87117 z"
         style="fill:#3a487b;fill-opacity:1"
         id="path103" /><path
         d="m 1790.0675,894.39998 -0.2476,0.0749 c -2.2139,0.67264 -8.5961,2.67128 -8.6305,2.70268 -0.063,0.0576 2.3321,7.77206 2.525,8.13232 0.084,0.15781 0.3564,0.41023 0.6041,0.56121 0.6832,0.4166 1.2707,0.33064 3.2752,-0.48008 l 1.8366,-0.74259 0.3183,-0.47284 0.3189,-0.47284 v -4.65139 z"
         style="fill:#bd4317;fill-opacity:1"
         id="path102" /><path
         d="m 1963.3235,893.71268 c -0.1218,0 -0.1648,1.26302 -0.1648,4.87929 v 4.87929 l 0.2,0.47853 c 0.237,0.56718 0.373,0.65058 2.4851,1.52548 l 1.6247,0.67283 0.6842,-0.0517 c 0.5268,-0.0399 0.7796,-0.14709 1.0976,-0.46508 l 0.4129,-0.4129 1.3901,-4.51652 c 0.7646,-2.48414 1.3518,-4.53072 1.3048,-4.54752 -0.3914,-0.13997 -8.9082,-2.44172 -9.0346,-2.44172 z"
         style="fill:#bd4317;fill-opacity:1"
         id="path101" /><path
         d="m 1859.1625,877.93587 -0.6708,0.11576 c -0.3691,0.0636 -1.8479,0.21391 -3.2856,0.33434 -17.2674,1.44637 -37.9997,6.67595 -60.5115,15.26315 l -1.3772,0.52555 v 6.19807 c 0,3.75011 0.052,6.19807 0.1318,6.19807 0.073,0 0.3114,-0.0706 0.5302,-0.15658 10.8023,-4.24758 28.6289,-8.97247 42.8134,-11.34711 9.442,-1.58069 23.4816,-3.05046 29.1382,-3.05046 1.2929,0 1.3181,-0.11439 0.1866,-0.85989 -3.921,-2.58345 -6.9551,-8.11895 -6.9551,-12.69018 z"
         style="fill:#3a487b;fill-opacity:1"
         id="path100" /><path
         d="m 1894.3536,877.88678 c 10e-4,-1.4e-4 0,0 0,0 0.959,0 25.9242,6.01373 36.373,8.76174 11.2186,2.95047 28.9072,8.05148 29.3563,8.46563 0.059,0.0546 0.091,2.70297 0.071,5.88543 l -0.037,5.78621 -2.0489,-0.74259 c -21.8418,-7.91613 -45.6989,-12.77165 -68.3535,-13.91233 -1.8846,-0.0949 -3.424,-0.20688 -3.422,-0.24908 0,-0.0422 0.415,-0.35374 0.9167,-0.69195 4.0491,-2.72919 6.9868,-8.03762 6.9908,-12.63179 3e-4,-0.38045 0.063,-0.66256 0.1494,-0.67127 z"
         style="fill:#3a487b;fill-opacity:1"
         id="path98" /><path
         id="path287"
         style="fill:#1a1a1a;fill-opacity:1;stroke:none;stroke-width:0.393089;stroke-linecap:round;paint-order:fill markers stroke"
         d="m 1919.3591,1082.3153 1.3968,1.6216 -4.1161,-0.8196 -0.2614,40.6141 c 0,0 9.0139,3.1321 9.2154,2.8097 0.2015,-0.3224 10.2278,-10.064 10.2278,-10.064 v -15.365 h 36.7476 l 19.7533,-13.995 c -5.5705,-3.0373 -12.0241,-4.766 -18.6474,-4.8018 z m 86.389,17.5861 -17.4976,11.9579 c 0.3407,1.4829 0.4413,2.9534 0.4216,4.2902 h 20.9409 c 0.3582,-5.9772 -1.1038,-11.4868 -3.8649,-16.2481 z" /><g
         id="g301"
         transform="translate(1320.3867,756.80889)"><path
           id="path5"
           d="m 576.59361,270.40139 c -5.39076,1.4622 -6.663,2.73441 -8.12518,8.12541 -0.0222,0.0818 -0.13847,0.0818 -0.16068,0 -1.46218,-5.391 -2.73446,-6.66321 -8.12528,-8.12541 -0.0819,-0.0221 -0.0819,-0.13833 0,-0.16068 5.39082,-1.4622 6.6631,-2.73441 8.12528,-8.1252 0.0222,-0.082 0.13845,-0.082 0.16068,0 1.46218,5.39079 2.73442,6.663 8.12518,8.1252 0.082,0.0224 0.082,0.13854 0,0.16068"
           style="fill:#f8a225;fill-opacity:1;fill-rule:nonzero;stroke:none;stroke-width:0.00210874" /><path
           id="path288"
           d="m 643.09688,294.98431 c -5.39076,1.4622 -6.663,2.73441 -8.12518,8.12541 -0.0222,0.0818 -0.13847,0.0818 -0.16068,0 -1.46218,-5.391 -2.73446,-6.66321 -8.12528,-8.12541 -0.0819,-0.0221 -0.0819,-0.13833 0,-0.16068 5.39082,-1.4622 6.6631,-2.73441 8.12528,-8.1252 0.0222,-0.082 0.13845,-0.082 0.16068,0 1.46218,5.39079 2.73442,6.663 8.12518,8.1252 0.082,0.0224 0.082,0.13854 0,0.16068"
           style="fill:#f8a225;fill-opacity:1;fill-rule:nonzero;stroke:none;stroke-width:0.00210874" /><path
           id="path289"
           d="m 695.6267,399.52642 c -5.39076,1.4622 -6.663,2.73441 -8.12518,8.12541 -0.0222,0.0818 -0.13847,0.0818 -0.16068,0 -1.46218,-5.391 -2.73446,-6.66321 -8.12528,-8.12541 -0.0819,-0.0221 -0.0819,-0.13833 0,-0.16068 5.39082,-1.4622 6.6631,-2.73441 8.12528,-8.1252 0.0222,-0.082 0.13845,-0.082 0.16068,0 1.46218,5.39079 2.73442,6.663 8.12518,8.1252 0.082,0.0224 0.082,0.13854 0,0.16068"
           style="fill:#f8a225;fill-opacity:1;fill-rule:nonzero;stroke:none;stroke-width:0.00210874" /><path
           id="path290"
           d="m 613.59737,470.16998 c -5.39076,1.4622 -6.663,2.73441 -8.12518,8.12541 -0.0222,0.0818 -0.13847,0.0818 -0.16068,0 -1.46218,-5.391 -2.73446,-6.66321 -8.12528,-8.12541 -0.0819,-0.0221 -0.0819,-0.13833 0,-0.16068 5.39082,-1.4622 6.6631,-2.73441 8.12528,-8.1252 0.0222,-0.082 0.13845,-0.082 0.16068,0 1.46218,5.39079 2.73442,6.663 8.12518,8.1252 0.082,0.0224 0.082,0.13854 0,0.16068"
           style="fill:#f8a225;fill-opacity:1;fill-rule:nonzero;stroke:none;stroke-width:0.00210874" /><path
           id="path291"
           d="m 565.98413,450.24487 c -5.39076,1.4622 -6.663,2.73441 -8.12518,8.12541 -0.0222,0.0818 -0.13847,0.0818 -0.16068,0 -1.46218,-5.391 -2.73446,-6.66321 -8.12528,-8.12541 -0.0819,-0.0221 -0.0819,-0.13833 0,-0.16068 5.39082,-1.4622 6.6631,-2.73441 8.12528,-8.1252 0.0222,-0.082 0.13845,-0.082 0.16068,0 1.46218,5.39079 2.73442,6.663 8.12518,8.1252 0.082,0.0224 0.082,0.13854 0,0.16068"
           style="fill:#f8a225;fill-opacity:1;fill-rule:nonzero;stroke:none;stroke-width:0.00210874" /><path
           id="path292"
           d="m 498.44578,488.80124 c -5.39076,1.4622 -6.663,2.73441 -8.12518,8.12541 -0.0222,0.0818 -0.13847,0.0818 -0.16068,0 -1.46218,-5.391 -2.73446,-6.66321 -8.12528,-8.12541 -0.0819,-0.0221 -0.0819,-0.13833 0,-0.16068 5.39082,-1.4622 6.6631,-2.73441 8.12528,-8.1252 0.0222,-0.082 0.13845,-0.082 0.16068,0 1.46218,5.39079 2.73442,6.663 8.12518,8.1252 0.082,0.0224 0.082,0.13854 0,0.16068"
           style="fill:#f8a225;fill-opacity:1;fill-rule:nonzero;stroke:none;stroke-width:0.00210874" /><path
           id="path293"
           d="m 484.47234,294.46678 c -5.39076,1.4622 -6.663,2.73441 -8.12518,8.12541 -0.0222,0.0818 -0.13847,0.0818 -0.16068,0 -1.46218,-5.391 -2.73446,-6.66321 -8.12528,-8.12541 -0.0819,-0.0221 -0.0819,-0.13833 0,-0.16068 5.39082,-1.4622 6.6631,-2.73441 8.12528,-8.1252 0.0222,-0.082 0.13845,-0.082 0.16068,0 1.46218,5.39079 2.73442,6.663 8.12518,8.1252 0.082,0.0224 0.082,0.13854 0,0.16068"
           style="fill:#f8a225;fill-opacity:1;fill-rule:nonzero;stroke:none;stroke-width:0.00210874" /><path
           id="path294"
           d="m 517.06539,335.82249 c -4.04087,1.09605 -4.99454,2.04969 -6.09058,6.09074 -0.0167,0.0613 -0.10371,0.0613 -0.12039,0 -1.09605,-4.04105 -2.04974,-4.99469 -6.09066,-6.09074 -0.0613,-0.0165 -0.0613,-0.10372 0,-0.12039 4.04092,-1.09607 4.99461,-2.0497 6.09066,-6.09059 0.0167,-0.0615 0.10372,-0.0615 0.12039,0 1.09604,4.04089 2.04971,4.99452 6.09058,6.09059 0.0615,0.0168 0.0615,0.10386 0,0.12039"
           style="fill:#f8a225;fill-opacity:1;fill-rule:nonzero;stroke:none;stroke-width:0.00158069" /><path
           id="path295"
           d="m 595.98951,244.21876 c -4.04087,1.09605 -4.99454,2.04969 -6.09058,6.09074 -0.0167,0.0613 -0.10371,0.0613 -0.12039,0 -1.09605,-4.04105 -2.04974,-4.99469 -6.09066,-6.09074 -0.0613,-0.0165 -0.0613,-0.10372 0,-0.12039 4.04092,-1.09607 4.99461,-2.0497 6.09066,-6.09059 0.0167,-0.0615 0.10372,-0.0615 0.12039,0 1.09604,4.04089 2.04971,4.99452 6.09058,6.09059 0.0615,0.0168 0.0615,0.10386 0,0.12039"
           style="fill:#f8a225;fill-opacity:1;fill-rule:nonzero;stroke:none;stroke-width:0.00158069" /><path
           id="path296"
           d="m 418.7337,325.47179 c -4.04087,1.09605 -4.99454,2.04969 -6.09058,6.09074 -0.0167,0.0613 -0.10371,0.0613 -0.12039,0 -1.09605,-4.04105 -2.04974,-4.99469 -6.09066,-6.09074 -0.0613,-0.0165 -0.0613,-0.10372 0,-0.12039 4.04092,-1.09607 4.99461,-2.0497 6.09066,-6.09059 0.0167,-0.0615 0.10372,-0.0615 0.12039,0 1.09604,4.04089 2.04971,4.99452 6.09058,6.09059 0.0615,0.0168 0.0615,0.10386 0,0.12039"
           style="fill:#f8a225;fill-opacity:1;fill-rule:nonzero;stroke:none;stroke-width:0.00158069" /><path
           id="path297"
           d="m 422.09768,366.61584 c -4.04087,1.09605 -4.99454,2.04969 -6.09058,6.09074 -0.0167,0.0613 -0.10371,0.0613 -0.12039,0 -1.09605,-4.04105 -2.04974,-4.99469 -6.09066,-6.09074 -0.0613,-0.0165 -0.0613,-0.10372 0,-0.12039 4.04092,-1.09607 4.99461,-2.0497 6.09066,-6.09059 0.0167,-0.0615 0.10372,-0.0615 0.12039,0 1.09604,4.04089 2.04971,4.99452 6.09058,6.09059 0.0615,0.0168 0.0615,0.10386 0,0.12039"
           style="fill:#f8a225;fill-opacity:1;fill-rule:nonzero;stroke:none;stroke-width:0.00158069" /><path
           id="path298"
           d="m 438.67036,349.78086 c -3.02844,0.82144 -3.74317,1.53614 -4.5646,4.56472 -0.0125,0.0459 -0.0777,0.0459 -0.0902,0 -0.82144,-3.02858 -1.53618,-3.74328 -4.56466,-4.56472 -0.0459,-0.0124 -0.0459,-0.0777 0,-0.0902 3.02848,-0.82145 3.74322,-1.53615 4.56466,-4.56461 0.0125,-0.0461 0.0777,-0.0461 0.0902,0 0.82143,3.02846 1.53616,3.74316 4.5646,4.56461 0.0461,0.0126 0.0461,0.0778 0,0.0902"
           style="fill:#f8a225;fill-opacity:1;fill-rule:nonzero;stroke:none;stroke-width:0.00118465" /><path
           id="path299"
           d="m 581.25131,432.32773 c -3.02844,0.82144 -3.74317,1.53614 -4.5646,4.56472 -0.0125,0.0459 -0.0777,0.0459 -0.0902,0 -0.82144,-3.02858 -1.53618,-3.74328 -4.56466,-4.56472 -0.0459,-0.0124 -0.0459,-0.0777 0,-0.0902 3.02848,-0.82145 3.74322,-1.53615 4.56466,-4.56461 0.0125,-0.0461 0.0777,-0.0461 0.0902,0 0.82143,3.02846 1.53616,3.74316 4.5646,4.56461 0.0461,0.0126 0.0461,0.0778 0,0.0902"
           style="fill:#f8a225;fill-opacity:1;fill-rule:nonzero;stroke:none;stroke-width:0.00118465" /><path
           id="path300"
           d="m 528.98025,482.52865 c -3.02844,0.82144 -3.74317,1.53614 -4.5646,4.56472 -0.0125,0.0459 -0.0777,0.0459 -0.0902,0 -0.82144,-3.02858 -1.53618,-3.74328 -4.56466,-4.56472 -0.0459,-0.0124 -0.0459,-0.0777 0,-0.0902 3.02848,-0.82145 3.74322,-1.53615 4.56466,-4.56461 0.0125,-0.0461 0.0777,-0.0461 0.0902,0 0.82143,3.02846 1.53616,3.74316 4.5646,4.56461 0.0461,0.0126 0.0461,0.0778 0,0.0902"
           style="fill:#f8a225;fill-opacity:1;fill-rule:nonzero;stroke:none;stroke-width:0.00118465" /><path
           id="path301"
           d="m 576.59349,470.62533 c -3.02844,0.82144 -3.74317,1.53614 -4.5646,4.56472 -0.0125,0.0459 -0.0777,0.0459 -0.0902,0 -0.82144,-3.02858 -1.53618,-3.74328 -4.56466,-4.56472 -0.0459,-0.0124 -0.0459,-0.0777 0,-0.0902 3.02848,-0.82145 3.74322,-1.53615 4.56466,-4.56461 0.0125,-0.0461 0.0777,-0.0461 0.0902,0 0.82143,3.02846 1.53616,3.74316 4.5646,4.56461 0.0461,0.0126 0.0461,0.0778 0,0.0902"
           style="fill:#f8a225;fill-opacity:1;fill-rule:nonzero;stroke:none;stroke-width:0.00118465" /></g><path
         style="fill:#1a1a1a;fill-opacity:1;stroke:none;stroke-width:0.393089;stroke-linecap:round;paint-order:fill markers stroke"
         d="m 1867.9013,1138.5172 0.6375,-27.1456 18.8924,-6.8371 -0.081,28.5347 -11.4332,10.7662 z"
         id="path302" /><path
         id="path22"
         style="fill:#93a4bd;fill-opacity:1;stroke-width:0.59025"
         class="cls-1"
         d="m 1809.0294,1029.8395 c -8.1295,-0.076 -15.3248,1.3995 -21.4494,4.4452 -1.0919,0.543 -6.7524,3.4531 -10.589,7.213 -9.928,9.7273 -13.5699,25.1269 -10.5301,44.5461 2.3079,14.7503 8.4109,31.561 17.8077,49.1799 1.8416,-0.6256 3.7248,-1.269 5.6549,-1.9301 v -6.3748 c -7.7086,-15.2107 -12.738,-29.5953 -14.7153,-42.2444 -1.8003,-11.4863 -3.5887,-29.8959 6.2626,-39.5465 2.0954,-2.054 5.6428,-4.5569 8.2812,-5.8673 13.5993,-6.7643 37.2037,-0.667 63.2514,11.805 19.254,9.2197 38.8561,23.2027 58.0569,40.2492 9.0042,7.9691 17.5549,16.2403 25.6522,24.814 v 5e-4 c 2.0069,2.1485 3.9489,4.3143 5.8141,6.4864 3.5887,-2.4377 6.3096,-4.3145 8.6352,-5.9495 -1.3989,-1.576 -2.8271,-3.14 -4.2732,-4.7041 -6.4898,-7.9132 -15.226,-16.2231 -25.5498,-24.813 10e-4,-4e-4 0,-10e-4 0,0 -1.2845,-1.1331 -2.5726,-2.2535 -3.8644,-3.361 -0.2781,-0.2228 -0.5576,-0.4459 -0.8382,-0.6692 l -0.013,0.019 c -19.8083,-16.8771 -40.3765,-30.7559 -59.7989,-40.057 -18.1059,-8.673 -34.2496,-13.1127 -47.7986,-13.24 z" /><path
         id="path303"
         style="fill:#f18159;fill-opacity:1;stroke-width:0.788057"
         d="m 1668.6461,1334.7532 c -0.4308,-0.016 -0.8686,0 -1.3105,0.062 -6.3049,0.8386 -8.8644,8.3943 -4.3802,12.9298 l 0.8397,0.8497 1.0531,0.5213 c 0.5792,0.286 1.4039,0.5928 1.8326,0.6813 h 4e-4 c 3.7715,0.7776 7.498,-1.3209 8.8326,-4.974 l 0.2981,-0.817 v -1.6706 l -0.01,-1.6701 -0.3429,-0.903 c -1.1352,-2.9875 -3.7964,-4.8949 -6.8119,-5.0101 z m -0.3412,2.5245 c 0.058,-1e-4 0.115,5e-4 0.1726,0 v 0 c 1.1702,0.045 2.3535,0.5102 3.3386,1.4564 1.0326,0.9911 1.5311,2.2562 1.5597,3.5125 0,4e-4 0,0 0,0 0,0.2084 0,0.4166 -0.025,0.6226 -0.1875,1.8695 -1.4083,3.6148 -3.4477,4.2871 -3.0127,0.9918 -6.068,-0.8591 -6.6326,-4.0193 l -0.1385,-0.7748 h 3e-4 -3e-4 l 0.1327,-0.776 c 0.4415,-2.5743 2.4986,-4.171 4.7122,-4.3016 0.051,0 0.1034,-0.01 0.1551,-0.01 0.057,0 0.1148,0 0.1723,0 z" /><path
         class="cls-1"
         d="m 1656.7078,1352.7202 c -2.6807,0 -4.8563,2.1756 -4.8563,4.8564 0,2.6807 2.1756,4.8563 4.8563,4.8563 2.6807,0 4.8563,-2.1756 4.8563,-4.8563 0,-2.6808 -2.1756,-4.8564 -4.8563,-4.8564 z"
         id="path304"
         style="fill:#f1a185;fill-opacity:1;stroke-width:0.388505" /><path
         id="path305"
         style="fill:#f18159;fill-opacity:1;stroke-width:0.788057"
         d="m 1633.5974,1204.6957 c -0.4308,-0.016 -0.8686,0 -1.3105,0.062 -6.3049,0.8386 -8.8644,8.3943 -4.3802,12.9298 l 0.8397,0.8497 1.0532,0.5213 c 0.5791,0.286 1.4038,0.5928 1.8325,0.6813 h 4e-4 c 3.7715,0.7776 7.498,-1.3209 8.8326,-4.974 l 0.2981,-0.817 -0.01,-1.6706 v -1.6701 l -0.3429,-0.903 c -1.1351,-2.9875 -3.7964,-4.8949 -6.8118,-5.0101 z m -0.3412,2.5245 c 0.058,-10e-5 0.115,5e-4 0.1727,0 v 0 c 1.1702,0.045 2.3534,0.5102 3.3385,1.4564 1.0326,0.9911 1.5312,2.2562 1.5597,3.5125 0,4e-4 0,0 0,0 0,0.2084 0,0.4166 -0.025,0.6226 -0.1874,1.8695 -1.4083,3.6148 -3.4477,4.2871 -3.0126,0.9918 -6.0679,-0.8591 -6.6326,-4.0193 l -0.1385,-0.7748 h 4e-4 -4e-4 l 0.1328,-0.776 c 0.4415,-2.5743 2.4985,-4.171 4.7121,-4.3016 0.051,0 0.1034,-0.01 0.1552,-0.01 0.058,0 0.1148,0 0.1722,0 z" /><path
         class="cls-1"
         d="m 1617.2835,1219.5177 c -2.6807,0 -4.8564,2.1756 -4.8564,4.8564 0,2.6807 2.1757,4.8563 4.8564,4.8563 2.6806,0 4.8563,-2.1756 4.8563,-4.8563 0,-2.6808 -2.1757,-4.8564 -4.8563,-4.8564 z"
         id="path306"
         style="fill:#f1a185;fill-opacity:1;stroke-width:0.388505" /><path
         style="baseline-shift:baseline;display:inline;overflow:visible;vector-effect:none;fill:#2b3d94;stroke-linecap:round;paint-order:fill markers stroke;enable-background:accumulate;stop-color:#000000"
         d="m 1935.1513,1042.8666 a 3.5,3.5 0 0 0 -2.418,1.1543 c -5.6397,6.2664 -20.4895,20.6935 -40.6309,26.3848 -20.1413,5.6913 -45.6014,3.2662 -74.6464,-25.1738 a 3.5,3.5 0 0 0 -4.9493,0.053 3.5,3.5 0 0 0 0.053,4.9492 c 30.3998,29.7664 59.2241,33.1872 81.4454,26.9082 22.2212,-6.279 37.8125,-21.6385 43.9316,-28.4375 a 3.5,3.5 0 0 0 -0.2598,-4.9434 3.5,3.5 0 0 0 -2.5254,-0.8945 z"
         id="path307" /><path
         style="fill:#2b3d94;fill-opacity:1"
         d="m 2091.7467,1017.4516 c -0.3877,0 -0.4539,-0.1586 1.2266,2.9399 18.9419,34.9257 29.5376,72.68 32.0092,114.0556 0.2469,4.1318 0.2459,22.1396 0,26.3523 -2.9587,50.4067 -18.6587,96.9561 -46.4654,137.7669 -4.1419,6.0788 -4.4226,6.3362 -5.7618,5.2828 -0.9347,-0.7352 -0.7846,-1.1607 1.6221,-4.5984 27.5552,-39.3585 44.3584,-87.1718 47.3902,-134.8481 0.5444,-8.5621 0.6532,-23.0203 0.2264,-30.0968 -2.1315,-35.3391 -9.7819,-66.0973 -24.3201,-97.7788 -3.1125,-6.7828 -7.9533,-16.1061 -8.3631,-16.1074 0,0 2.6253,-2.968 2.4369,-2.968 z"
         id="path308"
         sodipodi:nodetypes="ccscsssssssc" /><path
         d="m 1772.8205,1261.8284 -0.1555,0.1354 c 0.095,-0.025 0.1576,-0.066 0.1576,-0.1122 0,-0.01 -9e-4,-0.016 0,-0.023 z m -2.6479,2.3017 -7.0708,6.1458 c 0.4499,0.3342 1.0188,0.7922 1.727,1.385 10.4965,8.7858 21.8986,16.3229 34.2749,22.657 4.302,2.2017 4.2496,2.1898 2.9083,0.648 -2.8668,-3.2955 -4.9574,-7.3937 -5.7422,-11.2577 -0.3506,-1.726 0.056,-1.3106 -3.1714,-3.2422 -7.3294,-4.3868 -14.4063,-9.3621 -21.0313,-14.7851 z"
         style="fill:#f18159;fill-opacity:1"
         id="path1-6" /><path
         class="cls-1"
         d="m 1682.4622,975.31018 c -2.6807,0 -4.8563,2.1756 -4.8563,4.8564 0,2.6807 2.1756,4.8563 4.8563,4.8563 2.6807,0 4.8563,-2.1756 4.8563,-4.8563 0,-2.6808 -2.1756,-4.8564 -4.8563,-4.8564 z"
         id="path309"
         style="fill:#f1a185;fill-opacity:1;stroke-width:0.388505" /><path
         class="cls-1"
         d="m 2070.3492,974.88109 c -2.6807,0 -4.8563,2.1756 -4.8563,4.8564 0,2.6807 2.1756,4.8563 4.8563,4.8563 2.6807,0 4.8563,-2.1756 4.8563,-4.8563 0,-2.6808 -2.1756,-4.8564 -4.8563,-4.8564 z"
         id="path310"
         style="fill:#f1a185;fill-opacity:1;stroke-width:0.388505" /></g></g></svg>
